<?xml version="1.0" standalone="no"?><!DOCTYPE svg PUBLIC "-//W3C//DTD SVG 1.1//EN" "http://www.w3.org/Graphics/SVG/1.1/DTD/svg11.dtd"><svg t="1497343870535" class="icon" style="" viewBox="0 0 1024 1024" version="1.1" xmlns="http://www.w3.org/2000/svg" p-id="1847" xmlns:xlink="http://www.w3.org/1999/xlink" width="32" height="32"><defs><style type="text/css"></style></defs><path d="M899.634016 242.272859 722.139509 242.272859l0-118.949113c0 0-3.776-57.150628-61.391209-57.150628l-293.01759 0.14224c0 0-63.888076-0.783853-62.029752 58.690704l0.115634 117.265774L119.029442 242.271836c-57.848523 0-51.111075 45.333488-51.111075 62.262042 0 16.932648-1.162476 58.545394 51.111075 58.545394l71.554686 0-4.530177 477.770408c0 0 4.530177 116.976178 119.762641 116.976178l416.322917 0c0 0 112.558565-3.832282 112.558565-117.206422l0.813528-477.540164 64.12139 0c54.073546 0 56.68707-41.612747 56.68707-58.545394C956.321086 287.606347 955.565886 242.272859 899.634016 242.272859zM363.432825 812.857139c0 15.391549-14.404058 27.878954-29.737278 27.878954-15.449877 0-27.878954-12.487406-27.878954-27.878954L305.816592 392.817574c0-15.391549 12.429077-27.878954 27.878954-27.878954 15.332197 0 29.737278 12.487406 29.737278 27.878954L363.432825 812.857139zM543.714817 809.139467c0 16.437367-13.358239 29.737278-29.737278 29.737278-16.436344 0-29.737278-13.299911-29.737278-29.737278l0-416.321894c0-16.436344 13.300934-29.737278 29.737278-29.737278 16.379039 0 29.737278 13.301957 29.737278 29.737278L543.714817 809.139467zM363.432825 242.272859c0-59.474556 62.263066-59.619866 62.263066-59.619866l179.353854 0.145309c0 0 55.755862 1.858324 55.755862 59.474556L363.432825 242.272859zM720.280162 811.927977c0 15.913435-12.894681 28.808116-28.807093 28.808116s-28.807093-12.895705-28.807093-28.808116l0-416.321894c0-15.914458 12.894681-28.808116 28.807093-28.808116s28.807093 12.894681 28.807093 28.808116L720.280162 811.927977z" p-id="1848" fill="#a1a1a1"></path></svg>