<?xml version="1.0" encoding="UTF-8"?>
<svg width="14px" height="18px" viewBox="0 0 14 18" version="1.1" xmlns="http://www.w3.org/2000/svg" xmlns:xlink="http://www.w3.org/1999/xlink">
    <!-- Generator: Sketch 41 (35326) - http://www.bohemiancoding.com/sketch -->
    <title>el-icon-delete</title>
    <desc>Created with Sketch.</desc>
    <defs></defs>
    <g id="Page-1" stroke="none" stroke-width="1" fill="none" fill-rule="evenodd">
        <g id="课程类别" transform="translate(-439.000000, -198.000000)" fill="#F26049">
            <g id="删除" transform="translate(428.000000, 189.000000)">
                <path d="M20.2137919,12.4930246 L20.2137924,10.3433228 C20.2137924,9.74172668 19.8044164,9.24951172 19.249097,9.24951172 L16.9167372,9.24951172 C16.3614177,9.24951172 15.7875429,9.74172668 15.7875429,10.3433228 L15.7875429,12.4930246 L12.3121826,12.4930246 C12.4468055,12.4930246 11.4371338,12.7132467 11.4371338,13.6247559 C11.4371338,14.2263519 11.8914861,14.7185669 12.4468055,14.7185669 L23.5531945,14.7185669 C24.1085139,14.7185669 24.5628662,14.2263519 24.5628662,13.6247559 C24.5628662,12.7132467 23.5531948,12.4930246 23.5531948,12.4930246 L20.2137919,12.4930246 Z M16.906189,12.5309448 L16.906189,11.4371338 C16.906189,10.6752581 17.3916744,10.3433228 18,10.3433228 C18.6222118,10.3433228 19.093811,10.6792637 19.093811,11.4371338 L19.093811,12.5309448 L16.906189,12.5309448 Z M14.7185669,26.7504883 L21.2814331,26.7504883 C22.4846252,26.7504883 23.4690552,25.7660583 23.4690552,24.5628662 L23.4690552,15.8123779 L12.5309448,15.8123779 L12.5309448,24.5628662 C12.5309448,25.7660583 13.5153748,26.7504883 14.7185669,26.7504883 Z M20.2519639,18.4861382 C20.2519639,18.2187622 20.4546406,18 20.7023567,18 C20.9500727,18 21.1527495,18.2187622 21.1527495,18.4861382 L21.1527495,24.3197971 C21.1527495,24.5871731 20.9500727,24.8059353 20.7023567,24.8059353 C20.4546406,24.8059353 20.2519639,24.5871731 20.2519639,24.3197971 L20.2519639,18.4861382 L20.2519639,18.4861382 Z M17.5496072,18.4861382 C17.5496072,18.2187622 17.752284,18 18,18 C18.247716,18 18.4503928,18.2187622 18.4503928,18.4861382 L18.4503928,24.3197971 C18.4503928,24.5871731 18.247716,24.8059353 18,24.8059353 C17.752284,24.8059353 17.5496072,24.5871731 17.5496072,24.3197971 L17.5496072,18.4861382 L17.5496072,18.4861382 Z M14.8472505,18.4861382 C14.8472505,18.2187622 15.0499273,18 15.2976433,18 C15.5453594,18 15.7480361,18.2187622 15.7480361,18.4861382 L15.7480361,24.3197971 C15.7480361,24.5871731 15.5453594,24.8059353 15.2976433,24.8059353 C15.0499273,24.8059353 14.8472505,24.5871731 14.8472505,24.3197971 L14.8472505,18.4861382 L14.8472505,18.4861382 Z" id="el-icon-delete"></path>
            </g>
        </g>
    </g>
</svg>