<?xml version="1.0" encoding="utf-8"?>
<!-- Generator: Adobe Illustrator 19.0.0, SVG Export Plug-In . SVG Version: 6.00 Build 0)  -->
<svg version="1.1" id="图层_1" xmlns="http://www.w3.org/2000/svg" xmlns:xlink="http://www.w3.org/1999/xlink" x="0px" y="0px"
	 viewBox="0 0 1024 1024" style="enable-background:new 0 0 1024 1024;" xml:space="preserve">
<style type="text/css">
	.st0{fill-rule:evenodd;clip-rule:evenodd;fill:url(#XMLID_9_);}
	.st1{fill-rule:evenodd;clip-rule:evenodd;fill:url(#XMLID_10_);}
	.st2{fill-rule:evenodd;clip-rule:evenodd;fill:url(#XMLID_11_);}
	.st3{fill-rule:evenodd;clip-rule:evenodd;fill:url(#XMLID_12_);}
	.st4{fill-rule:evenodd;clip-rule:evenodd;fill:url(#XMLID_13_);}
	.st5{fill-rule:evenodd;clip-rule:evenodd;fill:url(#XMLID_14_);}
</style>
<g id="XMLID_2_">
	<linearGradient id="XMLID_9_" gradientUnits="userSpaceOnUse" x1="113.2608" y1="503.9094" x2="1378.3888" y2="422.1371">
		<stop  offset="0" style="stop-color:#0086A0"/>
		<stop  offset="1" style="stop-color:#65B188"/>
	</linearGradient>
	<path id="XMLID_8_" class="st0" d="M822.8,165c68.2,68.7,109.6,159.5,109.6,259.1c0,107.7-48.4,205-126.6,275.3
		c-77.4,69.6-184.2,112.6-301.9,112.6c-71.5,0-138.9-15.9-198.2-43.9l-158.3,6.2l68.9-62.6c-4.9-4-9.7-8.1-14.3-12.3
		C123.8,629,75.4,531.7,75.4,424.1c0-99.6,41.5-190.4,109.6-259.1l41.8,38.2C167.9,261.8,132,339.3,132,424.1
		c0,90.9,41.2,173.4,107.8,233.2c67.4,60.5,160.7,98,264.1,98c103.3,0,196.7-37.5,264.1-98c66.6-59.8,107.8-142.3,107.8-233.2
		c0-84.8-35.9-162.3-94.8-220.9L822.8,165z"/>
	<linearGradient id="XMLID_10_" gradientUnits="userSpaceOnUse" x1="356.4446" y1="446.8083" x2="442.0392" y2="439.4818">
		<stop  offset="0" style="stop-color:#0086A0"/>
		<stop  offset="1" style="stop-color:#65B188"/>
	</linearGradient>
	<circle id="XMLID_7_" class="st1" cx="383.2" cy="444.5" r="30"/>
	<linearGradient id="XMLID_11_" gradientUnits="userSpaceOnUse" x1="845.7482" y1="559.8471" x2="645.0152" y2="416.0124">
		<stop  offset="0" style="stop-color:#0086A0"/>
		<stop  offset="1" style="stop-color:#65B188"/>
	</linearGradient>
	<path id="XMLID_6_" class="st2" d="M496.5,523.7c7.1,12.5,15.9,24,26,34.1h0.1c29,29,69,46.9,113.2,46.9
		c44.2,0,84.2-17.9,113.2-46.9l0,0l0,0c29-29,46.9-69.1,46.9-113.2c0-44.2-17.9-84.2-46.9-113.2v-0.1c-8.9-8.9-18.8-16.7-29.6-23.3
		l12-62.2l-81,72.6l-26.1,23.4c3.8-0.4,7.6-0.6,11.5-0.6c28.5,0,54.4,11.6,73.1,30.3l0,0c18.7,18.7,30.2,44.5,30.2,73.1
		s-11.6,54.4-30.2,73.1l0,0c-18.7,18.7-44.5,30.3-73.1,30.3c-28.5,0-54.4-11.6-73.1-30.3l0,0c-18.7-18.7-30.2-44.5-30.2-73.1v-0.2
		h-15h0C517.4,444.3,501.1,515.4,496.5,523.7z"/>
	<linearGradient id="XMLID_12_" gradientUnits="userSpaceOnUse" x1="458.8218" y1="616.6205" x2="568.6241" y2="612.5163">
		<stop  offset="0" style="stop-color:#0086A0"/>
		<stop  offset="1" style="stop-color:#65B188"/>
	</linearGradient>
	<path id="XMLID_5_" class="st3" d="M455.3,614.9l0.2-0.2c35-23.7,48.6-52.6,48.6-52.6s13.6,28.9,48.6,52.6l0.2,0.2l-48.8,52.8
		L455.3,614.9z"/>
	<linearGradient id="XMLID_13_" gradientUnits="userSpaceOnUse" x1="598.2902" y1="446.8088" x2="683.8927" y2="439.4817">
		<stop  offset="0" style="stop-color:#0086A0"/>
		<stop  offset="1" style="stop-color:#65B188"/>
	</linearGradient>
	<circle id="XMLID_4_" class="st4" cx="625" cy="444.5" r="30"/>
	<linearGradient id="XMLID_14_" gradientUnits="userSpaceOnUse" x1="229.3368" y1="430.8248" x2="1107.0474" y2="387.3633">
		<stop  offset="0" style="stop-color:#0086A0"/>
		<stop  offset="1" style="stop-color:#65B188"/>
	</linearGradient>
	<path id="XMLID_3_" class="st5" d="M275.1,247.4l13.2,60.5c-10.8,6.6-20.7,14.5-29.6,23.3v0.1c-29,29-46.9,69-46.9,113.2
		c0,44.2,17.9,84.3,46.9,113.3l0,0c29,29,69.1,47,113.2,47c44.2,0,84.2-18,113.2-46.9h0.1c10.1-10.1,18.9-21.6,26-34.1
		c0,0,20.2-36.9,20.8-79.4h-8.4h-24.8h-23.6l0.1,0.2c0,28.6-11.6,54.4-30.2,73.1l0,0c-18.7,18.7-44.5,30.3-73.1,30.3
		c-28.5,0-54.4-11.6-73.1-30.3l0,0c-18.7-18.7-30.2-44.5-30.2-73.1c0-28.5,11.6-54.4,30.2-73.1l0,0c18.7-18.7,44.5-30.3,73.1-30.3
		c3.9,0,7.7,0.2,11.4,0.6L275.1,247.4z"/>
</g>
</svg>
