<?xml version="1.0" encoding="UTF-8"?>
<svg width="18px" height="18px" viewBox="0 0 18 18" version="1.1" xmlns="http://www.w3.org/2000/svg" xmlns:xlink="http://www.w3.org/1999/xlink">
    <!-- Generator: Sketch 41 (35326) - http://www.bohemiancoding.com/sketch -->
    <title>Shape</title>
    <desc>Created with Sketch.</desc>
    <defs></defs>
    <g id="Page-1" stroke="none" stroke-width="1" fill="none" fill-rule="evenodd">
        <g id="同城学微校通-规范文档" transform="translate(-787.000000, -1327.000000)" fill="#A1A1A1">
            <path d="M795.985477,1327 C791.023385,1327 787,1331.02769 787,1335.99535 C787,1340.96302 791.023267,1344.9907 795.985477,1344.9907 C800.947688,1344.9907 804.970955,1340.96302 804.970955,1335.99535 C804.970955,1331.02781 800.947688,1327 795.985477,1327 L795.985477,1327 Z M796.738514,1340.98357 L796.738514,1342.667 L795.118869,1342.667 L795.118869,1341.11787 C794.025355,1341.06625 792.962801,1340.75641 792.343807,1340.41562 L792.828681,1338.50505 C793.509598,1338.87691 794.479267,1339.22799 795.541859,1339.22799 C796.49088,1339.22799 797.120288,1338.85613 797.120288,1338.21592 C797.120288,1337.59626 796.594178,1337.20384 795.376856,1336.79071 C793.633425,1336.202 792.436711,1335.38612 792.436711,1333.79573 C792.436711,1332.33955 793.447675,1331.21384 795.191146,1330.88337 L795.191146,1329.33424 L796.790222,1329.33424 L796.790222,1330.76977 C797.863148,1330.80075 798.60587,1331.04862 799.173276,1331.30677 L798.688402,1333.15537 C798.275745,1332.95913 797.512316,1332.57709 796.336329,1332.57709 C795.273796,1332.57709 794.933278,1333.05215 794.933278,1333.50655 C794.933278,1334.03323 795.500623,1334.39472 796.914048,1334.89045 C798.853484,1335.58242 799.627227,1336.4809 799.627227,1337.96805 C799.627227,1339.42423 798.616263,1340.67397 796.738731,1340.98373 L796.738514,1340.98357 Z" id="Shape"></path>
        </g>
    </g>
</svg>