<?xml version="1.0" encoding="UTF-8"?>
<svg width="18px" height="18px" viewBox="0 0 18 18" version="1.1" xmlns="http://www.w3.org/2000/svg" xmlns:xlink="http://www.w3.org/1999/xlink">
    <!-- Generator: Sketch 41 (35326) - http://www.bohemiancoding.com/sketch -->
    <title>Shape</title>
    <desc>Created with Sketch.</desc>
    <defs></defs>
    <g id="Page-1" stroke="none" stroke-width="1" fill="none" fill-rule="evenodd">
        <g id="同城学微校通-规范文档" transform="translate(-947.000000, -1329.000000)" fill="#A1A1A1">
            <path d="M952.538462,1329 L949.769231,1329 C948.246154,1329 947,1330.24615 947,1331.76923 L947,1334.53846 C947,1336.06154 948.246154,1337.30769 949.769231,1337.30769 L952.538462,1337.30769 C954.061538,1337.30769 955.307692,1336.06154 955.307692,1334.53846 L955.307692,1331.76923 C955.307692,1330.24615 954.061538,1329 952.538462,1329 Z M962.230769,1329 L959.461538,1329 C957.938462,1329 956.692308,1330.24615 956.692308,1331.76923 L956.692308,1334.53846 C956.692308,1336.06154 957.938462,1337.30769 959.461538,1337.30769 L962.230769,1337.30769 C963.753846,1337.30769 965,1336.06154 965,1334.53846 L965,1331.76923 C965,1330.24615 963.753846,1329 962.230769,1329 Z M952.538462,1338.69231 L949.769231,1338.69231 C948.246154,1338.69231 947,1339.93846 947,1341.46154 L947,1344.23077 C947,1345.75385 948.246154,1347 949.769231,1347 L952.538462,1347 C954.061538,1347 955.307692,1345.75385 955.307692,1344.23077 L955.307692,1341.46154 C955.307692,1339.93846 954.061538,1338.69231 952.538462,1338.69231 Z M962.230769,1338.69231 L959.461538,1338.69231 C957.938462,1338.69231 956.692308,1339.93846 956.692308,1341.46154 L956.692308,1344.23077 C956.692308,1345.75385 957.938462,1347 959.461538,1347 L962.230769,1347 C963.753846,1347 965,1345.75385 965,1344.23077 L965,1341.46154 C965,1339.93846 963.753846,1338.69231 962.230769,1338.69231 Z" id="Shape"></path>
        </g>
    </g>
</svg>