<?xml version="1.0" encoding="UTF-8"?>
<svg width="18px" height="14px" viewBox="0 0 18 14" version="1.1" xmlns="http://www.w3.org/2000/svg" xmlns:xlink="http://www.w3.org/1999/xlink">
    <!-- Generator: Sketch 41 (35326) - http://www.bohemiancoding.com/sketch -->
    <title>微信</title>
    <desc>Created with Sketch.</desc>
    <defs></defs>
    <g id="Page-1" stroke="none" stroke-width="1" fill="none" fill-rule="evenodd">
        <g id="同城学微校通-规范文档" transform="translate(-864.000000, -1331.000000)" fill="#A1A1A1">
            <g id="微信" transform="translate(864.000000, 1331.000000)">
                <path d="M12.1829686,4.24658308 C12.3890174,4.24658308 12.5932822,4.26084776 12.7957631,4.28224478 C12.2454077,1.83674427 9.50611846,0.0197811015 6.37970732,0.0197811015 C2.88401394,0.0197811015 0.020738676,2.29410549 0.020738676,5.18181095 C0.020738676,6.84899504 0.973379791,8.21751244 2.56557491,9.27933931 L1.92958886,11.1043264 L4.15241812,10.0407164 C4.94806969,10.1913871 5.58583971,10.3456239 6.37970732,10.3456239 C6.5795122,10.3456239 6.7775331,10.3367085 6.97377004,10.3215523 C6.848892,9.91590053 6.7775331,9.49063485 6.7775331,9.05021295 C6.77664111,6.39876618 9.16270384,4.24658308 12.1829686,4.24658308 Z M8.76398607,2.60079603 C9.24298259,2.60079603 9.55963764,2.90124579 9.55963764,3.35860698 C9.55963764,3.81329355 9.24209061,4.11820101 8.76398607,4.11820101 C8.28766551,4.11820101 7.808669,3.81329355 7.808669,3.35860698 C7.808669,2.90213731 8.28766551,2.60079603 8.76398607,2.60079603 Z M4.31297561,4.11820099 C3.83665505,4.11820099 3.35498258,3.81329353 3.35498258,3.35860696 C3.35498258,2.90213731 3.83576306,2.60079601 4.31297561,2.60079601 C4.78929617,2.60079601 5.1068432,2.90124576 5.1068432,3.35860696 C5.1068432,3.81329353 4.79018816,4.11820099 4.31297561,4.11820099 Z M17.987122,8.97710647 C17.987122,6.55121991 15.4431777,4.57288758 12.5852544,4.57288758 C9.55963764,4.57288758 7.17625087,6.55032838 7.17625087,8.97710647 C7.17625087,11.4074507 9.55963762,13.3813254 12.5852544,13.3813254 C13.2185645,13.3813254 13.8572265,13.2288716 14.4932126,13.0764179 L16.2370453,13.9875741 L15.7589408,12.4710607 C17.0362648,11.5581214 17.987122,10.3456239 17.987122,8.97710647 Z M10.8316098,8.21751244 C10.5149547,8.21751244 10.1956237,7.91706269 10.1956237,7.61037215 C10.1956237,7.30813931 10.5149547,7.0041234 10.8316098,7.0041234 C11.3123902,7.0041234 11.6272613,7.30903086 11.6272613,7.61037215 C11.6281533,7.91706269 11.3132822,8.21751244 10.8316098,8.21751244 Z M14.3299791,8.21751244 C14.015108,8.21751244 13.698453,7.91706269 13.698453,7.61037215 C13.698453,7.30813931 14.016,7.0041234 14.3299791,7.0041234 C14.8062997,7.0041234 15.1256307,7.30903086 15.1256307,7.61037215 C15.1256307,7.91706269 14.8062997,8.21751244 14.3299791,8.21751244 Z" id="Shape"></path>
            </g>
        </g>
    </g>
</svg>