<?xml version="1.0" encoding="UTF-8"?>
<svg width="18px" height="18px" viewBox="0 0 18 18" version="1.1" xmlns="http://www.w3.org/2000/svg" xmlns:xlink="http://www.w3.org/1999/xlink">
    <!-- Generator: Sketch 41 (35326) - http://www.bohemiancoding.com/sketch -->
    <title>Shape Copy 2</title>
    <desc>Created with Sketch.</desc>
    <defs></defs>
    <g id="Page-1" stroke="none" stroke-width="1" fill="none" fill-rule="evenodd">
        <g id="同城学微校通-规范文档" transform="translate(-744.000000, -1365.000000)" fill="#515151">
            <path d="M747.663141,1367.30541 C746.059776,1367.30541 745.673718,1366.95957 745.655697,1366.50299 C745.673718,1366.18038 746.565054,1365.92216 747.118375,1365.92216 L757.572477,1365.92216 C757.958513,1365.92216 758.327827,1366.02821 758.648231,1366.22181 C758.266505,1365.49798 757.523978,1365 756.694007,1365 L746.239906,1365 C745.019155,1365 744,1366.06986 744,1367.35161 L744,1378.32559 C744,1378.3902 744,1378.45479 744.00431,1378.51469 C744,1378.82355 744,1379.10479 744,1379.34927 C744.795227,1382.21714 747.026599,1382.76604 747.764361,1382.87183 C747.979668,1382.94572 748.203596,1382.98261 748.436101,1382.98261 L758.890181,1382.98261 C760.110931,1382.98261 761.130087,1381.91298 761.130087,1380.63097 L761.130087,1378.37166 L753.553343,1378.37166 C751.493567,1378.34398 750.975032,1376.92852 750.975032,1375.14405 C750.975032,1373.35954 751.550253,1371.91638 753.61044,1371.91638 L761.130108,1371.91638 L761.130108,1369.65708 C761.130108,1368.37531 760.110953,1367.30545 758.890202,1367.30545 L747.663184,1367.30545 L747.663141,1367.30541 Z M753.443545,1372.83856 C752.648339,1372.83856 751.906245,1373.87151 751.906245,1375.14403 C751.906245,1376.41655 752.648296,1377.44948 753.443545,1377.44948 L761.349747,1377.44948 C761.718606,1377.44948 761.995278,1377.07599 761.982,1376.75786 L761.982,1373.55786 C761.995256,1373.24424 761.718628,1372.83856 761.349747,1372.83856 L753.443545,1372.83856 L753.443545,1372.83856 Z M753.171119,1375.14401 C753.171119,1374.37852 753.812339,1373.70531 754.541567,1373.70531 C755.270794,1373.70531 755.912036,1374.37852 755.912036,1375.14401 C755.912036,1375.90949 755.296939,1376.55498 754.568188,1376.55498 C753.843292,1376.55496 753.171141,1375.90947 753.171141,1375.14401 L753.171119,1375.14401 Z" id="Shape-Copy-2"></path>
        </g>
    </g>
</svg>