<?xml version="1.0" encoding="UTF-8"?>
<svg width="17px" height="18px" viewBox="0 0 17 18" version="1.1" xmlns="http://www.w3.org/2000/svg" xmlns:xlink="http://www.w3.org/1999/xlink">
    <!-- Generator: Sketch 41 (35326) - http://www.bohemiancoding.com/sketch -->
    <title>Shape Copy</title>
    <desc>Created with Sketch.</desc>
    <defs></defs>
    <g id="Page-1" stroke="none" stroke-width="1" fill="none" fill-rule="evenodd">
        <g id="同城学微校通-规范文档" transform="translate(-700.000000, -1365.000000)" fill="#515151">
            <path d="M712.6363,1375.35669 L712.6363,1370.71747 L708.902,1368.08053 L708.902,1366.72433 L712.224055,1366.72433 L712.224055,1365 L708.745241,1365 L708.43915,1365 L708.43915,1368.08014 L704.656727,1370.85922 L704.656727,1375.35669 L700,1375.35669 L700,1382.99228 L706.866836,1382.99228 L706.866836,1380.06024 C706.866836,1379.19044 707.616692,1378.48558 708.541965,1378.48558 L708.541965,1378.48558 C709.486752,1378.48558 710.252784,1379.20558 710.252784,1380.09378 L710.252784,1382.99228 L716.987341,1382.99228 L716.987341,1375.35669 L712.6363,1375.35669 L712.6363,1375.35669 L712.6363,1375.35669 Z M708.585937,1374.20858 C707.661071,1374.20858 706.910787,1373.50374 706.910787,1372.63392 C706.910787,1371.76416 707.661071,1371.05891 708.585937,1371.05891 C709.511252,1371.05891 710.261472,1371.76416 710.261472,1372.63392 C710.261472,1373.50372 709.511274,1374.20858 708.585937,1374.20858 L708.585937,1374.20858 Z" id="Shape-Copy"></path>
        </g>
    </g>
</svg>