<?xml version="1.0" encoding="UTF-8"?>
<svg width="17px" height="18px" viewBox="0 0 17 18" version="1.1" xmlns="http://www.w3.org/2000/svg" xmlns:xlink="http://www.w3.org/1999/xlink">
    <!-- Generator: Sketch 41 (35326) - http://www.bohemiancoding.com/sketch -->
    <title>Shape</title>
    <desc>Created with Sketch.</desc>
    <defs></defs>
    <g id="Page-1" stroke="none" stroke-width="1" fill="none" fill-rule="evenodd">
        <g id="同城学微校通-规范文档" transform="translate(-700.000000, -1327.000000)" fill="#A1A1A1">
            <path d="M712.6363,1337.35669 L712.6363,1332.71747 L708.902,1330.08053 L708.902,1328.72433 L712.224055,1328.72433 L712.224055,1327 L708.745241,1327 L708.43915,1327 L708.43915,1330.08014 L704.656727,1332.85922 L704.656727,1337.35669 L700,1337.35669 L700,1344.99228 L706.866836,1344.99228 L706.866836,1342.06024 C706.866836,1341.19044 707.616692,1340.48558 708.541965,1340.48558 L708.541965,1340.48558 C709.486752,1340.48558 710.252784,1341.20558 710.252784,1342.09378 L710.252784,1344.99228 L716.987341,1344.99228 L716.987341,1337.35669 L712.6363,1337.35669 L712.6363,1337.35669 L712.6363,1337.35669 Z M708.585937,1336.20858 C707.661071,1336.20858 706.910787,1335.50374 706.910787,1334.63392 C706.910787,1333.76416 707.661071,1333.05891 708.585937,1333.05891 C709.511252,1333.05891 710.261472,1333.76416 710.261472,1334.63392 C710.261472,1335.50372 709.511274,1336.20858 708.585937,1336.20858 L708.585937,1336.20858 Z" id="Shape"></path>
        </g>
    </g>
</svg>