<?xml version="1.0" encoding="UTF-8"?>
<svg width="18px" height="18px" viewBox="0 0 18 18" version="1.1" xmlns="http://www.w3.org/2000/svg" xmlns:xlink="http://www.w3.org/1999/xlink">
    <!-- Generator: Sketch 41 (35326) - http://www.bohemiancoding.com/sketch -->
    <title>Shape Copy 5</title>
    <desc>Created with Sketch.</desc>
    <defs></defs>
    <g id="Page-1" stroke="none" stroke-width="1" fill="none" fill-rule="evenodd">
        <g id="同城学微校通-规范文档" transform="translate(-904.000000, -1365.000000)" fill="#515151">
            <path d="M919.995124,1374.14664 C919.324952,1374.14664 918.731429,1374.49581 918.371657,1375.02723 L914.494324,1372.70106 C915.875962,1372.08983 916.848914,1370.66404 916.848914,1369.00944 C916.848914,1366.80108 915.115581,1365 912.990476,1365 C910.865371,1365 909.132038,1366.80108 909.132038,1369.00944 C909.132038,1370.66404 910.10499,1372.08983 911.486629,1372.70106 L907.6096,1375.02707 C907.249676,1374.49581 906.656305,1374.14648 905.985829,1374.14648 C904.892038,1374.14664 904,1375.07363 904,1376.21042 C904,1377.34659 904.892038,1378.27342 905.985829,1378.27342 C907.079619,1378.27342 907.971657,1377.34659 907.971657,1376.21042 C907.971657,1375.9303 907.917105,1375.66348 907.819124,1375.41962 L912.030629,1372.89298 C912.270476,1372.95727 912.519314,1372.99765 912.774552,1373.01238 L912.774552,1376.98428 C911.281371,1377.10004 910.096914,1378.3993 910.096914,1379.9798 C910.096914,1381.63583 911.396724,1382.98672 912.990476,1382.98672 C914.584533,1382.98672 915.884343,1381.63583 915.884343,1379.9798 C915.884343,1378.3993 914.699886,1377.09988 913.2064,1376.98428 L913.2064,1373.01238 C913.457599,1372.99809 913.70683,1372.9581 913.950476,1372.89298 L918.161981,1375.41978 C918.064152,1375.66364 918.0096,1375.93062 918.0096,1376.21042 C918.0096,1377.34659 918.901638,1378.27342 919.995124,1378.27342 C921.088914,1378.27342 921.980952,1377.34659 921.980952,1376.21042 C921.980952,1375.07363 921.088914,1374.14664 919.995124,1374.14664 L919.995124,1374.14664 Z" id="Shape-Copy-5"></path>
        </g>
    </g>
</svg>