<?xml version="1.0" encoding="UTF-8"?>
<svg width="18px" height="18px" viewBox="0 0 18 18" version="1.1" xmlns="http://www.w3.org/2000/svg" xmlns:xlink="http://www.w3.org/1999/xlink">
    <!-- Generator: Sketch 41 (35326) - http://www.bohemiancoding.com/sketch -->
    <title>Shape Copy 6</title>
    <desc>Created with Sketch.</desc>
    <defs></defs>
    <g id="Page-1" stroke="none" stroke-width="1" fill="none" fill-rule="evenodd">
        <g id="同城学微校通-规范文档" transform="translate(-947.000000, -1364.000000)" fill="#515151">
            <path d="M952.538462,1364 L949.769231,1364 C948.246154,1364 947,1365.24615 947,1366.76923 L947,1369.53846 C947,1371.06154 948.246154,1372.30769 949.769231,1372.30769 L952.538462,1372.30769 C954.061538,1372.30769 955.307692,1371.06154 955.307692,1369.53846 L955.307692,1366.76923 C955.307692,1365.24615 954.061538,1364 952.538462,1364 Z M962.230769,1364 L959.461538,1364 C957.938462,1364 956.692308,1365.24615 956.692308,1366.76923 L956.692308,1369.53846 C956.692308,1371.06154 957.938462,1372.30769 959.461538,1372.30769 L962.230769,1372.30769 C963.753846,1372.30769 965,1371.06154 965,1369.53846 L965,1366.76923 C965,1365.24615 963.753846,1364 962.230769,1364 Z M952.538462,1373.69231 L949.769231,1373.69231 C948.246154,1373.69231 947,1374.93846 947,1376.46154 L947,1379.23077 C947,1380.75385 948.246154,1382 949.769231,1382 L952.538462,1382 C954.061538,1382 955.307692,1380.75385 955.307692,1379.23077 L955.307692,1376.46154 C955.307692,1374.93846 954.061538,1373.69231 952.538462,1373.69231 Z M962.230769,1373.69231 L959.461538,1373.69231 C957.938462,1373.69231 956.692308,1374.93846 956.692308,1376.46154 L956.692308,1379.23077 C956.692308,1380.75385 957.938462,1382 959.461538,1382 L962.230769,1382 C963.753846,1382 965,1380.75385 965,1379.23077 L965,1376.46154 C965,1374.93846 963.753846,1373.69231 962.230769,1373.69231 Z" id="Shape-Copy-6"></path>
        </g>
    </g>
</svg>