<svg class="icon" viewBox="0 0 1024 1024" xmlns="http://www.w3.org/2000/svg" width="32" height="32"><defs><style/></defs><path d="M899.634 242.273H722.14v-118.95s-3.776-57.15-61.392-57.15l-293.017.142s-63.888-.783-62.03 58.691l.116 117.266H119.029c-57.848 0-51.11 45.333-51.11 62.262 0 16.933-1.163 58.545 51.11 58.545h71.555l-4.53 477.77s4.53 116.977 119.763 116.977H722.14s112.558-3.832 112.558-117.207l.814-477.54h64.121c54.074 0 56.687-41.612 56.687-58.545.001-16.928-.754-62.261-56.686-62.261zM363.433 812.857c0 15.392-14.404 27.88-29.737 27.88-15.45 0-27.88-12.488-27.88-27.88v-420.04c0-15.391 12.43-27.878 27.88-27.878 15.332 0 29.737 12.487 29.737 27.879v420.04zm180.282-3.718c0 16.438-13.358 29.738-29.737 29.738-16.437 0-29.738-13.3-29.738-29.738V392.818c0-16.437 13.301-29.738 29.738-29.738 16.379 0 29.737 13.302 29.737 29.738v416.321zM363.433 242.273c0-59.475 62.263-59.62 62.263-59.62l179.354.145s55.756 1.859 55.756 59.475H363.433zM720.28 811.928c0 15.913-12.895 28.808-28.807 28.808s-28.807-12.896-28.807-28.808V395.606c0-15.914 12.895-28.808 28.807-28.808s28.807 12.895 28.807 28.808v416.322z" fill="#515151"/></svg>