<svg id="图层_1" xmlns="http://www.w3.org/2000/svg" viewBox="0 0 1024 1024"><style>.st0{fill:url(#XMLID_9_)}.st0,.st1,.st2,.st3,.st4,.st5{fill-rule:evenodd;clip-rule:evenodd}.st1{fill:url(#XMLID_10_)}.st2{fill:url(#XMLID_11_)}.st3{fill:url(#XMLID_12_)}.st4{fill:url(#XMLID_13_)}.st5{fill:url(#XMLID_14_)}</style><g id="XMLID_2_"><linearGradient id="XMLID_9_" gradientUnits="userSpaceOnUse" x1="113.261" y1="503.909" x2="1378.389" y2="422.137"><stop offset="0" stop-color="#0086a0"/><stop offset="1" stop-color="#65b188"/></linearGradient><path id="XMLID_8_" class="st0" d="M822.8 165c68.2 68.7 109.6 159.5 109.6 259.1 0 107.7-48.4 205-126.6 275.3C728.4 769 621.6 812 503.9 812c-71.5 0-138.9-15.9-198.2-43.9l-158.3 6.2 68.9-62.6c-4.9-4-9.7-8.1-14.3-12.3C123.8 629 75.4 531.7 75.4 424.1c0-99.6 41.5-190.4 109.6-259.1l41.8 38.2C167.9 261.8 132 339.3 132 424.1c0 90.9 41.2 173.4 107.8 233.2 67.4 60.5 160.7 98 264.1 98 103.3 0 196.7-37.5 264.1-98 66.6-59.8 107.8-142.3 107.8-233.2 0-84.8-35.9-162.3-94.8-220.9l41.8-38.2z"/><linearGradient id="XMLID_10_" gradientUnits="userSpaceOnUse" x1="356.445" y1="446.808" x2="442.039" y2="439.482"><stop offset="0" stop-color="#0086a0"/><stop offset="1" stop-color="#65b188"/></linearGradient><circle id="XMLID_7_" class="st1" cx="383.2" cy="444.5" r="30"/><linearGradient id="XMLID_11_" gradientUnits="userSpaceOnUse" x1="845.748" y1="559.847" x2="645.015" y2="416.012"><stop offset="0" stop-color="#0086a0"/><stop offset="1" stop-color="#65b188"/></linearGradient><path id="XMLID_6_" class="st2" d="M496.5 523.7c7.1 12.5 15.9 24 26 34.1h.1c29 29 69 46.9 113.2 46.9S720 586.8 749 557.8s46.9-69.1 46.9-113.2c0-44.2-17.9-84.2-46.9-113.2v-.1c-8.9-8.9-18.8-16.7-29.6-23.3l12-62.2-81 72.6-26.1 23.4c3.8-.4 7.6-.6 11.5-.6 28.5 0 54.4 11.6 73.1 30.3 18.7 18.7 30.2 44.5 30.2 73.1s-11.6 54.4-30.2 73.1c-18.7 18.7-44.5 30.3-73.1 30.3-28.5 0-54.4-11.6-73.1-30.3-18.7-18.7-30.2-44.5-30.2-73.1v-.2h-15c-.1-.1-16.4 71-21 79.3z"/><linearGradient id="XMLID_12_" gradientUnits="userSpaceOnUse" x1="458.822" y1="616.62" x2="568.624" y2="612.516"><stop offset="0" stop-color="#0086a0"/><stop offset="1" stop-color="#65b188"/></linearGradient><path id="XMLID_5_" class="st3" d="M455.3 614.9l.2-.2c35-23.7 48.6-52.6 48.6-52.6s13.6 28.9 48.6 52.6l.2.2-48.8 52.8-48.8-52.8z"/><linearGradient id="XMLID_13_" gradientUnits="userSpaceOnUse" x1="598.29" y1="446.809" x2="683.893" y2="439.482"><stop offset="0" stop-color="#0086a0"/><stop offset="1" stop-color="#65b188"/></linearGradient><circle id="XMLID_4_" class="st4" cx="625" cy="444.5" r="30"/><linearGradient id="XMLID_14_" gradientUnits="userSpaceOnUse" x1="229.337" y1="430.825" x2="1107.047" y2="387.363"><stop offset="0" stop-color="#0086a0"/><stop offset="1" stop-color="#65b188"/></linearGradient><path id="XMLID_3_" class="st5" d="M275.1 247.4l13.2 60.5c-10.8 6.6-20.7 14.5-29.6 23.3v.1c-29 29-46.9 69-46.9 113.2s17.9 84.3 46.9 113.3 69.1 47 113.2 47c44.2 0 84.2-18 113.2-46.9h.1c10.1-10.1 18.9-21.6 26-34.1 0 0 20.2-36.9 20.8-79.4h-56.8l.1.2c0 28.6-11.6 54.4-30.2 73.1-18.7 18.7-44.5 30.3-73.1 30.3-28.5 0-54.4-11.6-73.1-30.3-18.7-18.7-30.2-44.5-30.2-73.1 0-28.5 11.6-54.4 30.2-73.1 18.7-18.7 44.5-30.3 73.1-30.3 3.9 0 7.7.2 11.4.6l-108.3-94.4z"/></g></svg>