<svg width="18" height="18" viewBox="0 0 18 18" xmlns="http://www.w3.org/2000/svg"><title>Shape</title><path d="M8.985 0C4.023 0 0 4.028 0 8.995c0 4.968 4.023 8.996 8.985 8.996 4.963 0 8.986-4.028 8.986-8.996C17.971 4.028 13.948 0 8.985 0zm.754 13.984v1.683h-1.62v-1.55c-1.094-.05-2.156-.36-2.775-.701l.485-1.911c.68.372 1.65.723 2.713.723.949 0 1.578-.372 1.578-1.012 0-.62-.526-1.012-1.743-1.425-1.744-.589-2.94-1.405-2.94-2.995 0-1.456 1.01-2.582 2.754-2.913V2.334h1.6V3.77c1.072.03 1.815.279 2.382.537l-.485 1.848c-.412-.196-1.176-.578-2.352-.578-1.062 0-1.403.475-1.403.93 0 .526.568.888 1.981 1.383 1.94.692 2.713 1.59 2.713 3.078 0 1.456-1.01 2.706-2.888 3.016z" fill="#A1A1A1" fill-rule="evenodd"/></svg>