<svg width="18" height="18" viewBox="0 0 18 18" xmlns="http://www.w3.org/2000/svg"><title>Shape Copy 6</title><path d="M5.538 0H2.77A2.777 2.777 0 0 0 0 2.77v2.768a2.777 2.777 0 0 0 2.77 2.77h2.768a2.777 2.777 0 0 0 2.77-2.77V2.77A2.777 2.777 0 0 0 5.538 0zm9.693 0h-2.77a2.777 2.777 0 0 0-2.769 2.77v2.768a2.777 2.777 0 0 0 2.77 2.77h2.769A2.777 2.777 0 0 0 18 5.538V2.77A2.777 2.777 0 0 0 15.23 0zM5.538 9.692H2.77A2.777 2.777 0 0 0 0 12.462v2.769A2.777 2.777 0 0 0 2.77 18h2.768a2.777 2.777 0 0 0 2.77-2.77v-2.768a2.777 2.777 0 0 0-2.77-2.77zm9.693 0h-2.77a2.777 2.777 0 0 0-2.769 2.77v2.769A2.777 2.777 0 0 0 12.462 18h2.769A2.777 2.777 0 0 0 18 15.23v-2.768a2.777 2.777 0 0 0-2.77-2.77z" fill="#515151" fill-rule="evenodd"/></svg>