<svg width="18" height="18" viewBox="0 0 18 18" xmlns="http://www.w3.org/2000/svg"><title>Shape</title><path d="M3.663 2.305c-1.603 0-1.99-.345-2.007-.802.018-.323.91-.58 1.462-.58h10.454c.387 0 .756.105 1.076.299C14.267.498 13.524 0 12.694 0H2.24C1.02 0 0 1.07 0 2.352v10.974c0 .064 0 .129.004.189-.004.309-.004.59-.004.834.795 2.868 3.027 3.417 3.764 3.523.216.074.44.11.672.11H14.89c1.22 0 2.24-1.069 2.24-2.351v-2.26H9.553c-2.06-.027-2.578-1.442-2.578-3.227 0-1.784.575-3.228 2.635-3.228h7.52V4.657c0-1.282-1.019-2.352-2.24-2.352H3.663zm5.78 5.534c-.795 0-1.537 1.033-1.537 2.305 0 1.273.742 2.305 1.538 2.305h7.906c.369 0 .645-.373.632-.691v-3.2c.013-.314-.263-.72-.632-.72H9.444zm-.272 2.305c0-.765.641-1.439 1.37-1.439.73 0 1.371.674 1.371 1.439s-.615 1.411-1.344 1.411c-.725 0-1.397-.646-1.397-1.411z" fill="#A1A1A1" fill-rule="evenodd"/></svg>