<svg width="18" height="18" viewBox="0 0 18 18" xmlns="http://www.w3.org/2000/svg"><title>Shape</title><path d="M15.995 9.147c-.67 0-1.264.349-1.623.88l-3.878-2.326c1.382-.611 2.355-2.037 2.355-3.692C12.849 1.801 11.116 0 8.99 0 6.865 0 5.132 1.801 5.132 4.01c0 1.654.973 3.08 2.355 3.691L3.61 10.027a1.964 1.964 0 0 0-1.624-.88C.892 9.146 0 10.073 0 11.21s.892 2.063 1.986 2.063c1.094 0 1.986-.926 1.986-2.063 0-.28-.055-.547-.153-.79l4.212-2.527c.24.064.488.105.744.12v3.971C7.28 12.1 6.097 13.4 6.097 14.98c0 1.656 1.3 3.007 2.893 3.007 1.595 0 2.894-1.351 2.894-3.007 0-1.58-1.184-2.88-2.678-2.996V8.012c.252-.014.5-.054.744-.119l4.212 2.527a2.12 2.12 0 0 0-.152.79c0 1.137.892 2.063 1.985 2.063 1.094 0 1.986-.926 1.986-2.063 0-1.136-.892-2.063-1.986-2.063z" fill="#A1A1A1" fill-rule="evenodd"/></svg>