<svg width="18" height="14" viewBox="0 0 18 14" xmlns="http://www.w3.org/2000/svg"><title>微信 copy</title><path d="M12.183 4.247c.206 0 .41.014.613.035C12.246 1.837 9.506.02 6.38.02 2.884.02.02 2.294.02 5.182c0 1.667.953 3.036 2.546 4.097l-.636 1.825 2.222-1.063c.796.15 1.434.305 2.228.305.2 0 .398-.01.594-.024a4.31 4.31 0 0 1-.196-1.272c-.001-2.65 2.385-4.803 5.405-4.803zM8.764 2.6c.479 0 .796.3.796.758 0 .454-.318.76-.796.76-.476 0-.955-.306-.955-.76 0-.457.479-.758.955-.758zM4.313 4.118c-.476 0-.958-.305-.958-.76 0-.456.48-.757.958-.757.476 0 .794.3.794.758 0 .454-.317.76-.794.76zm13.674 4.86c0-2.427-2.544-4.405-5.402-4.405-3.025 0-5.409 1.977-5.409 4.404 0 2.43 2.384 4.404 5.41 4.404.633 0 1.271-.152 1.907-.305l1.744.912-.478-1.517c1.277-.913 2.228-2.125 2.228-3.494zm-7.155-.76c-.317 0-.636-.3-.636-.608 0-.302.319-.606.636-.606.48 0 .795.305.795.606.001.307-.314.608-.795.608zm3.498 0c-.315 0-.632-.3-.632-.608 0-.302.318-.606.632-.606.476 0 .796.305.796.606 0 .307-.32.608-.796.608z" fill="#515151" fill-rule="evenodd"/></svg>